<mxfile host="app.diagrams.net" modified="2024-04-02T17:26:35.423Z" agent="Mozilla/5.0 (Windows NT 10.0; Win64; x64) AppleWebKit/537.36 (KHTML, like Gecko) Chrome/123.0.0.0 Safari/537.36" version="24.2.1" etag="E4gp9JHD3n5vWRodiabk" type="github">
  <diagram name="PÃ¡gina-1" id="e2H7z5z1DHi275R7N4fV">
    <mxGraphModel>
      <root>
        <mxCell id="0" />
        <mxCell id="1" parent="0" />
      </root>
    </mxGraphModel>
  </diagram>
</mxfile>
